HIERARCHY
ROOT Hips
{
	OFFSET 0.000000 103.266502 0.000000
	CHANNELS 6 Xposition Yposition Zposition Xrotation Yrotation Zrotation 
	JOINT Spine
	{
		OFFSET -0.002400 12.777504 0.315300
		CHANNELS 3 Xrotation Yrotation Zrotation
		JOINT Spine1
		{
			OFFSET -0.002067 5.816869 0.032633
			CHANNELS 3 Xrotation Yrotation Zrotation
			JOINT Spine1_split
			{
				OFFSET -0.002067 5.816869 0.032633
				CHANNELS 3 Xrotation Yrotation Zrotation
				JOINT Spine2
				{
					OFFSET -0.002067 5.816869 0.032633
					CHANNELS 3 Xrotation Yrotation Zrotation
					JOINT Neck
					{
						OFFSET -0.003700 21.199493 -0.826900
						CHANNELS 3 Xrotation Yrotation Zrotation
						JOINT Head
						{
							OFFSET 0.000000 20.442200 4.834800
							CHANNELS 3 Xrotation Yrotation Zrotation
							JOINT HeadTop_End
							{
								OFFSET 0.000000 34.668396 4.968400
								CHANNELS 3 Xrotation Yrotation Zrotation
								End Site
								{
									OFFSET 0.000000 0.000000 0.000000
								}
							}
						}
					}
					JOINT LeftShoulder
					{
						OFFSET 3.288150 8.794197 -1.372250
						CHANNELS 3 Xrotation Yrotation Zrotation
						JOINT LeftShoulder_split
						{
							OFFSET 3.288150 8.794197 -1.372250
							CHANNELS 3 Xrotation Yrotation Zrotation
							JOINT LeftArm
							{
								OFFSET 11.953299 -2.279007 -0.146200
								CHANNELS 3 Xrotation Yrotation Zrotation
								JOINT LeftForeArm
								{
									OFFSET 18.448900 0.000000 0.000000
									CHANNELS 3 Xrotation Yrotation Zrotation
									JOINT LeftHand
									{
										OFFSET 29.527798 0.000000 0.000000
										CHANNELS 3 Xrotation Yrotation Zrotation
										JOINT LeftHandThumb1
										{
											OFFSET 10.739754 -2.369614 9.225399
											CHANNELS 3 Xrotation Yrotation Zrotation
											JOINT LeftHandThumb2
											{
												OFFSET 4.926170 -2.844131 2.844125
												CHANNELS 3 Xrotation Yrotation Zrotation
												JOINT LeftHandThumb3
												{
													OFFSET 4.614891 -2.664413 2.664409
													CHANNELS 3 Xrotation Yrotation Zrotation
													JOINT LeftHandThumb4
													{
														OFFSET 4.432465 -2.559082 2.559083
														CHANNELS 3 Xrotation Yrotation Zrotation
														End Site
														{
															OFFSET 0.000000 0.000000 0.000000
														}
													}
												}
											}
										}
										JOINT LeftHandIndex1
										{
											OFFSET 26.467674 0.187653 6.405298
											CHANNELS 3 Xrotation Yrotation Zrotation
											JOINT LeftHandIndex2
											{
												OFFSET 8.792900 0.000000 0.000000
												CHANNELS 3 Xrotation Yrotation Zrotation
												JOINT LeftHandIndex3
												{
													OFFSET 10.075203 0.000000 0.000000
													CHANNELS 3 Xrotation Yrotation Zrotation
													End Site
													{
														OFFSET 0.000000 0.000000 0.000000
													}
												}
											}
										}
										JOINT LeftHandMiddle1
										{
											OFFSET 25.764404 0.000000 0.000000
											CHANNELS 3 Xrotation Yrotation Zrotation
											JOINT LeftHandMiddle2
											{
												OFFSET 9.393974 0.000000 0.000000
												CHANNELS 3 Xrotation Yrotation Zrotation
												JOINT LeftHandMiddle3
												{
													OFFSET 10.771950 0.000000 0.000000
													CHANNELS 3 Xrotation Yrotation Zrotation
													End Site
													{
														OFFSET 0.000000 0.000000 0.000000
													}
												}
											}
										}
										JOINT LeftHandRing1
										{
											OFFSET 24.660927 0.144547 -6.225808
											CHANNELS 3 Xrotation Yrotation Zrotation
											JOINT LeftHandRing2
											{
												OFFSET 9.393799 0.000000 0.000000
												CHANNELS 3 Xrotation Yrotation Zrotation
												JOINT LeftHandRing3
												{
													OFFSET 9.928497 0.000000 0.000000
													CHANNELS 3 Xrotation Yrotation Zrotation
													End Site
													{
														OFFSET 0.000000 0.000000 0.000000
													}
												}
											}
										}
										JOINT LeftHandPinky1
										{
											OFFSET 23.655350 0.125290 -12.815412
											CHANNELS 3 Xrotation Yrotation Zrotation
											JOINT LeftHandPinky2
											{
												OFFSET 8.425102 0.000000 0.000000
												CHANNELS 3 Xrotation Yrotation Zrotation
												JOINT LeftHandPinky3
												{
													OFFSET 8.147003 0.000000 0.000000
													CHANNELS 3 Xrotation Yrotation Zrotation
													End Site
													{
														OFFSET 0.000000 0.000000 0.000000
													}
												}
											}
										}
									}
								}
							}
						}
					}
					JOINT RightShoulder
					{
						OFFSET -3.249400 8.794197 -1.372250
						CHANNELS 3 Xrotation Yrotation Zrotation
						JOINT RightShoulder_split
						{
							OFFSET -3.249400 8.794197 -1.372250
							CHANNELS 3 Xrotation Yrotation Zrotation
							JOINT RightArm
							{
								OFFSET -11.953299 -2.279007 -0.146200
								CHANNELS 3 Xrotation Yrotation Zrotation
								JOINT RightForeArm
								{
									OFFSET -18.448900 0.000000 0.000000
									CHANNELS 3 Xrotation Yrotation Zrotation
									JOINT RightHand
									{
										OFFSET -29.527802 0.000000 0.000000
										CHANNELS 3 Xrotation Yrotation Zrotation
										JOINT RightHandThumb1
										{
											OFFSET -10.739754 -2.369614 9.225399
											CHANNELS 3 Xrotation Yrotation Zrotation
											JOINT RightHandThumb2
											{
												OFFSET -4.926170 -2.844131 2.844125
												CHANNELS 3 Xrotation Yrotation Zrotation
												JOINT RightHandThumb3
												{
													OFFSET -4.614891 -2.664413 2.664409
													CHANNELS 3 Xrotation Yrotation Zrotation
													JOINT RightHandThumb4
													{
														OFFSET -4.432465 -2.559082 2.559083
														CHANNELS 3 Xrotation Yrotation Zrotation
														End Site
														{
															OFFSET 0.000000 0.000000 0.000000
														}
													}
												}
											}
										}
										JOINT RightHandIndex1
										{
											OFFSET -26.467674 0.187653 6.405298
											CHANNELS 3 Xrotation Yrotation Zrotation
											JOINT RightHandIndex2
											{
												OFFSET -8.792900 0.000000 0.000000
												CHANNELS 3 Xrotation Yrotation Zrotation
												JOINT RightHandIndex3
												{
													OFFSET -10.075203 0.000000 0.000000
													CHANNELS 3 Xrotation Yrotation Zrotation
													End Site
													{
														OFFSET 0.000000 0.000000 0.000000
													}
												}
											}
										}
										JOINT RightHandMiddle1
										{
											OFFSET -25.764404 0.000000 0.000000
											CHANNELS 3 Xrotation Yrotation Zrotation
											JOINT RightHandMiddle2
											{
												OFFSET -9.393974 0.000000 0.000000
												CHANNELS 3 Xrotation Yrotation Zrotation
												JOINT RightHandMiddle3
												{
													OFFSET -10.771950 0.000000 0.000000
													CHANNELS 3 Xrotation Yrotation Zrotation
													End Site
													{
														OFFSET 0.000000 0.000000 0.000000
													}
												}
											}
										}
										JOINT RightHandRing1
										{
											OFFSET -24.660927 0.144547 -6.225808
											CHANNELS 3 Xrotation Yrotation Zrotation
											JOINT RightHandRing2
											{
												OFFSET -9.393799 0.000000 0.000000
												CHANNELS 3 Xrotation Yrotation Zrotation
												JOINT RightHandRing3
												{
													OFFSET -9.928497 0.000000 0.000000
													CHANNELS 3 Xrotation Yrotation Zrotation
													End Site
													{
														OFFSET 0.000000 0.000000 0.000000
													}
												}
											}
										}
										JOINT RightHandPinky1
										{
											OFFSET -23.655350 0.125290 -12.815412
											CHANNELS 3 Xrotation Yrotation Zrotation
											JOINT RightHandPinky2
											{
												OFFSET -8.425102 0.000000 0.000000
												CHANNELS 3 Xrotation Yrotation Zrotation
												JOINT RightHandPinky3
												{
													OFFSET -8.147003 0.000000 0.000000
													CHANNELS 3 Xrotation Yrotation Zrotation
													End Site
													{
														OFFSET 0.000000 0.000000 0.000000
													}
												}
											}
										}
									}
								}
							}
						}
					}
				}
			}
		}
	}
	JOINT LeftUpLeg
	{
		OFFSET 11.394100 -6.187798 -0.413800
		CHANNELS 3 Xrotation Yrotation Zrotation
		JOINT LeftLeg
		{
			OFFSET 0.430247 -32.302673 3.732800
			CHANNELS 3 Xrotation Yrotation Zrotation
			JOINT LeftFoot
			{
				OFFSET -0.430247 -48.264931 -6.423300
				CHANNELS 3 Xrotation Yrotation Zrotation
				JOINT LeftToeBase
				{
					OFFSET 4.230900 -16.068199 23.438400
					CHANNELS 3 Xrotation Yrotation Zrotation
					JOINT LeftToe_End
					{
						OFFSET 4.510700 0.695400 19.974600
						CHANNELS 3 Xrotation Yrotation Zrotation
						End Site
						{
							OFFSET 0.000000 0.000000 0.000000
						}
					}
				}
			}
		}
	}
	JOINT RightUpLeg
	{
		OFFSET -11.333700 -6.187798 -0.413800
		CHANNELS 3 Xrotation Yrotation Zrotation
		JOINT RightLeg
		{
			OFFSET -0.430392 -32.302628 3.733000
			CHANNELS 3 Xrotation Yrotation Zrotation
			JOINT RightFoot
			{
				OFFSET 0.430392 -48.264973 -6.423500
				CHANNELS 3 Xrotation Yrotation Zrotation
				JOINT RightToeBase
				{
					OFFSET -4.230900 -16.068199 23.438400
					CHANNELS 3 Xrotation Yrotation Zrotation
					JOINT RightToe_End
					{
						OFFSET -4.510700 0.695400 19.974600
						CHANNELS 3 Xrotation Yrotation Zrotation
						End Site
						{
							OFFSET 0.000000 0.000000 0.000000
						}
					}
				}
			}
		}
	}
}
MOTION
Frames: 6
Frame Time: 0.016667
0.548238 101.033531 -1.047369 2.912639 -28.992726 1.099237 7.836536 -0.348179 -2.592251 1.099246 -0.880572 2.383464 0.000000 0.000000 0.000000 1.108681 -0.590433 2.446367 -3.841827 18.019038 -6.496412 -6.332735 13.021622 0.301452 -0.000000 0.000000 -0.000000 -0.057080 -8.759453 -0.061262 0.000000 0.000000 0.000000 -55.250776 0.329461 -41.449392 11.584455 -65.827328 13.005566 -50.189101 12.353144 4.610199 17.551619 -5.699222 -12.932303 10.850485 26.127774 8.644844 20.927005 51.115848 0.218734 0.000002 -0.000001 -0.000001 13.980894 1.201506 -55.004367 0.370821 1.161735 -65.441900 -0.000000 -0.000001 0.000002 7.504731 1.174456 -63.778490 1.807816 1.475693 -64.567964 -0.000000 0.000000 -0.000000 8.574347 2.179095 -75.148986 -0.207657 1.009271 -57.855063 -0.000001 0.000001 0.000002 10.030102 13.637053 -84.750251 0.877106 0.062283 -64.595483 -0.000000 0.000000 0.000000 4.849287 7.760153 5.560464 0.000000 0.000000 0.000000 -0.933496 -2.176889 61.845642 11.299290 18.943446 -3.987590 -0.459238 6.620145 5.830126 15.788529 -2.734478 -17.205887 -2.198321 -31.113557 7.361291 -6.566792 -4.138112 2.407555 -0.000000 0.000002 -0.000001 2.372303 -3.659075 8.487478 -2.147369 -2.473143 18.673288 0.000001 -0.000000 -0.000000 -1.976248 -5.707889 13.662368 0.283053 -5.105404 26.988115 0.000000 0.000001 -0.000001 -3.263080 -8.563310 11.768992 4.036051 -4.063311 33.263137 0.000001 0.000001 -0.000003 -6.474146 -11.347961 23.260708 10.719412 -2.558790 34.822941 -0.000001 0.000000 -0.000003 -17.580220 18.045971 11.713859 15.585001 13.145454 -1.046562 -0.203779 -4.070763 -5.306716 -0.145176 0.008040 -0.311794 -0.000000 -0.000000 0.000000 -8.752695 -1.427054 -9.027261 10.740447 9.472813 0.841378 -5.317905 -0.876912 7.447442 -1.288159 -0.016765 0.150244 -0.000000 0.000001 0.000000 
0.612612 101.009132 -1.081486 2.891429 -29.081904 1.104989 7.936940 -0.327069 -2.536757 1.080461 -0.850011 2.358321 0.000000 0.000000 0.000000 1.088649 -0.565125 2.416396 -3.855337 18.005321 -6.571708 -6.317579 12.968643 0.353974 -0.000000 0.000000 -0.000000 -0.057072 -8.759443 -0.061266 0.000000 0.000000 0.000000 -55.271431 0.413112 -41.445216 11.503864 -65.871116 12.918189 -50.190334 12.364729 4.610413 17.551617 -5.699220 -12.932305 10.850485 26.127769 8.644847 20.927001 51.115852 0.218733 -0.000003 0.000000 -0.000001 13.980894 1.201507 -55.004367 0.370821 1.161735 -65.441900 -0.000001 0.000001 0.000001 7.504730 1.174457 -63.778483 1.807816 1.475693 -64.567971 -0.000001 0.000000 0.000003 8.574347 2.179096 -75.148992 -0.207657 1.009271 -57.855063 -0.000001 -0.000001 0.000001 10.030104 13.637053 -84.750244 0.877106 0.062282 -64.595476 0.000000 0.000000 0.000003 4.865849 7.713964 5.066077 0.000000 0.000000 0.000000 -1.727478 -3.842182 62.180799 11.300530 19.067267 -3.968932 -0.401672 6.552084 5.647321 15.848967 -2.695782 -17.150602 -2.384713 -31.097513 7.210790 -6.533841 -4.206816 2.475155 -0.000001 -0.000002 -0.000001 2.412225 -3.560309 9.283004 -2.102625 -2.491898 20.475833 0.000000 -0.000000 0.000002 -1.994704 -5.660128 14.224509 0.416707 -5.085387 28.451571 0.000001 -0.000000 0.000000 -3.395388 -8.569166 12.124392 4.157463 -3.928404 34.228410 0.000000 -0.000001 0.000004 -6.836881 -11.346078 23.402369 10.672928 -2.539586 35.822365 0.000000 0.000000 -0.000002 -17.660234 18.041482 11.703511 15.730400 13.163858 -1.044320 -0.246691 -4.011266 -5.289006 -0.145183 0.008039 -0.311791 -0.000000 0.000000 -0.000000 -8.894302 -1.387308 -9.076256 10.898336 9.463943 0.840858 -5.326350 -0.788785 7.482815 -1.288173 -0.016753 0.150242 -0.000000 -0.000001 -0.000000 
0.686828 100.970978 -1.121001 2.891729 -29.198680 1.138339 8.055128 -0.306122 -2.482677 1.045027 -0.814359 2.320276 0.000000 0.000000 0.000000 1.051740 -0.537255 2.372764 -3.859430 18.003588 -6.653440 -6.291793 12.928293 0.401020 -0.000000 -0.000000 -0.000000 -0.056866 -8.756185 -0.061013 0.000000 0.000000 0.000000 -55.279084 0.492940 -41.432187 11.415603 -65.915779 12.820414 -50.192543 12.364389 4.627906 17.551619 -5.699220 -12.932304 10.850485 26.127769 8.644845 20.927003 51.115845 0.218731 -0.000000 -0.000001 -0.000002 13.980894 1.201506 -55.004360 0.370821 1.161735 -65.441900 0.000002 -0.000001 -0.000001 7.504731 1.174457 -63.778490 1.807816 1.475693 -64.567971 -0.000001 0.000002 0.000003 8.574348 2.179094 -75.148992 -0.207655 1.009271 -57.855063 0.000001 -0.000000 0.000001 10.030105 13.637053 -84.750251 0.877106 0.062283 -64.595476 0.000000 0.000000 0.000002 4.899520 7.770202 4.883303 0.000000 0.000000 0.000000 -2.486732 -5.619530 62.291769 11.240943 19.305405 -3.821068 -0.295079 6.502940 5.287241 15.913513 -2.655486 -17.091845 -2.582653 -31.081278 7.049759 -6.498497 -4.276784 2.548405 -0.000001 0.000001 -0.000000 2.451974 -3.455401 10.124567 -2.056493 -2.510908 22.383110 -0.000000 -0.000000 0.000000 -2.015456 -5.610608 14.819356 0.556761 -5.060600 29.999878 -0.000000 -0.000000 0.000001 -3.535409 -8.575337 12.500576 4.281583 -3.782341 35.249206 0.000000 0.000000 0.000001 -7.220728 -11.346653 23.553264 10.626885 -2.521962 36.881854 -0.000001 0.000000 -0.000003 -17.793087 18.035914 11.681282 15.934941 13.108741 -1.044784 -0.310198 -3.849726 -5.264846 -0.145191 0.008045 -0.311792 -0.000000 0.000000 -0.000000 -9.132224 -1.310092 -9.153011 11.166461 9.295570 0.827542 -5.364775 -0.534940 7.553396 -1.288170 -0.016761 0.150242 -0.000000 0.000002 0.000000 
0.779099 100.912788 -1.166703 2.912228 -29.362642 1.207824 8.215463 -0.281245 -2.418140 0.982369 -0.769354 2.257491 0.000000 0.000000 0.000000 0.987264 -0.504680 2.302936 -3.858820 18.023134 -6.759834 -6.253561 12.897461 0.461517 0.000000 0.000000 -0.000000 -0.053856 -8.693466 -0.060969 0.000000 0.000000 0.000000 -55.250391 0.554231 -41.417485 11.247218 -65.966309 12.636368 -50.201464 12.368756 4.700087 17.551619 -5.699217 -12.932306 10.850481 26.127770 8.644846 20.927001 51.115852 0.218732 -0.000003 0.000001 -0.000006 13.980894 1.201509 -55.004367 0.370823 1.161735 -65.441900 0.000000 0.000000 0.000002 7.504731 1.174458 -63.778490 1.807815 1.475693 -64.567964 0.000002 0.000000 0.000001 8.574347 2.179097 -75.148992 -0.207656 1.009272 -57.855063 -0.000000 0.000001 0.000006 10.030102 13.637053 -84.750251 0.877106 0.062282 -64.595476 -0.000000 0.000000 0.000003 4.923729 7.918119 4.671083 0.000000 0.000000 0.000000 -3.132913 -7.632036 62.463835 11.059131 19.707843 -3.492767 -0.105817 6.503910 4.622632 15.981663 -2.613719 -17.029905 -2.790799 -31.064674 6.879380 -6.461023 -4.347839 2.626732 -0.000002 -0.000001 0.000001 2.490957 -3.344923 11.007152 -2.009447 -2.530180 24.383591 -0.000001 -0.000000 0.000000 -2.038539 -5.559737 15.443194 0.702049 -5.030689 31.623793 0.000001 -0.000001 0.000002 -3.682339 -8.585999 12.895187 4.407017 -3.625677 36.319111 -0.000000 0.000000 0.000000 -7.623301 -11.349996 23.712685 10.582182 -2.506283 37.994997 0.000000 -0.000000 -0.000001 -17.990558 18.033397 11.635670 16.226815 13.026300 -1.032282 -0.407136 -3.610819 -5.245118 -0.145177 0.008049 -0.311790 -0.000000 -0.000000 0.000000 -9.498362 -1.193417 -9.271779 11.583312 9.015333 0.805375 -5.443613 -0.137213 7.655817 -1.288158 -0.016761 0.150242 -0.000000 0.000000 -0.000000 
0.917971 100.814407 -1.210764 2.905164 -29.655206 1.322677 8.505810 -0.253665 -2.296683 0.868402 -0.696430 2.129975 0.000000 0.000000 0.000000 0.870421 -0.455849 2.163772 -3.853842 18.093890 -6.945735 -6.188456 12.866631 0.625713 0.000000 0.000000 -0.000000 -0.049763 -8.608676 -0.060882 0.000000 0.000000 0.000000 -55.187987 0.666065 -41.372529 11.060943 -66.061965 12.423051 -50.211623 12.365750 4.777421 17.551619 -5.699218 -12.932299 10.850482 26.127772 8.644846 20.927000 51.115848 0.218732 -0.000004 0.000001 -0.000002 13.980892 1.201508 -55.004367 0.370821 1.161735 -65.441900 0.000000 -0.000000 0.000003 7.504733 1.174455 -63.778490 1.807816 1.475693 -64.567964 0.000000 0.000001 0.000002 8.574349 2.179095 -75.148992 -0.207658 1.009271 -57.855063 0.000000 0.000001 0.000002 10.030102 13.637053 -84.750251 0.877106 0.062283 -64.595476 0.000000 0.000000 0.000002 4.926553 8.143904 4.272907 0.000000 0.000000 0.000000 -3.433656 -9.791454 62.874227 10.500005 20.433554 -2.575350 0.226352 6.419933 3.487499 16.052971 -2.570663 -16.965256 -3.007951 -31.047646 6.700765 -6.421709 -4.419864 2.709433 -0.000001 0.000001 -0.000000 2.528450 -3.229578 11.925428 -1.961807 -2.549739 26.465562 0.000002 0.000000 -0.000001 -2.064003 -5.508097 16.092622 0.851617 -4.995299 33.313589 0.000002 0.000001 -0.000005 -3.835306 -8.599776 13.305849 4.532467 -3.459015 37.431861 -0.000001 0.000000 0.000000 -8.042260 -11.356602 23.879774 10.539574 -2.492897 39.154975 0.000001 -0.000000 0.000001 -18.237232 18.030489 11.533996 16.707877 13.024200 -0.991986 -0.595289 -3.316528 -5.248582 -0.145177 0.008040 -0.311791 -0.000000 -0.000000 -0.000000 -10.050726 -1.023711 -9.488366 12.269065 8.741922 0.783962 -5.600473 0.380030 7.791512 -1.288161 -0.016758 0.150240 0.000000 -0.000001 -0.000000 
1.146836 100.629471 -1.266643 2.961082 -30.114806 1.522074 8.951357 -0.236391 -1.903985 0.703658 -0.585260 1.832113 0.000000 0.000000 0.000000 0.705413 -0.398434 1.847529 -3.990011 18.259485 -7.426546 -6.127230 12.762790 0.874324 0.000000 -0.000000 -0.000000 -0.045088 -8.511565 -0.060802 0.000000 0.000000 0.000000 -54.961477 0.953844 -41.080190 10.524853 -66.349339 11.838337 -50.229973 12.353720 4.912741 17.551621 -5.699217 -12.932302 10.850483 26.127777 8.644847 20.927005 51.115852 0.218733 0.000002 -0.000002 -0.000002 13.980894 1.201507 -55.004360 0.370819 1.161735 -65.441900 0.000000 -0.000001 0.000002 7.504730 1.174457 -63.778490 1.807817 1.475692 -64.567964 -0.000001 0.000000 -0.000002 8.574348 2.179096 -75.148992 -0.207657 1.009271 -57.855063 0.000000 -0.000000 0.000001 10.030105 13.637053 -84.750251 0.877106 0.062283 -64.595476 -0.000000 0.000000 0.000001 4.912892 8.203510 3.322311 0.000000 0.000000 0.000000 -3.097453 -12.067725 64.055263 9.527914 21.706932 -0.948215 0.759034 6.373543 1.630217 16.126985 -2.526452 -16.898323 -3.232786 -31.029915 6.515106 -6.380662 -4.492679 2.796037 -0.000001 0.000001 -0.000000 2.564018 -3.110012 12.874329 -1.914001 -2.569631 28.617285 0.000000 -0.000001 0.000001 -2.091786 -5.456074 16.763793 1.004305 -4.954214 35.059829 -0.000001 0.000001 -0.000004 -3.993395 -8.616890 13.730495 4.656678 -3.283073 38.581246 -0.000000 -0.000000 0.000002 -8.475189 -11.366686 24.053647 10.499882 -2.482009 40.355107 0.000000 0.000000 0.000001 -18.786977 17.991343 11.423025 17.636211 13.169797 -0.931082 -0.959663 -2.989115 -5.277083 -0.145179 0.008039 -0.311789 -0.000000 0.000000 0.000000 -11.038387 -0.770212 -9.765097 13.417010 10.100851 0.893046 -5.881069 -0.548505 7.633812 -1.288184 -0.016733 0.150249 0.000000 -0.000001 -0.000000 
